<?xml version="1.0" encoding="UTF-8" standalone="no"?>
<!-- Uploaded to: SVG Repo, www.svgrepo.com, Generator: SVG Repo Mixer Tools -->

<svg
   width="800px"
   height="800px"
   viewBox="0 0 1024 1024"
   class="icon"
   version="1.1"
   id="svg21"
   sodipodi:docname="calendar-svgrepo-com.svg"
   xml:space="preserve"
   inkscape:version="1.2.1 (9c6d41e4, 2022-07-14)"
   inkscape:export-filename="app-icon.png"
   inkscape:export-xdpi="61.439999"
   inkscape:export-ydpi="61.439999"
   xmlns:inkscape="http://www.inkscape.org/namespaces/inkscape"
   xmlns:sodipodi="http://sodipodi.sourceforge.net/DTD/sodipodi-0.dtd"
   xmlns="http://www.w3.org/2000/svg"
   xmlns:svg="http://www.w3.org/2000/svg"><defs
     id="defs25"><inkscape:path-effect
       effect="fillet_chamfer"
       id="path-effect1818"
       is_visible="true"
       lpeversion="1"
       nodesatellites_param="F,0,0,1,0,0,0,1 @ F,0,0,1,0,0,0,1 @ F,0,1,1,0,160,0,1 @ F,0,1,1,0,160,0,1"
       unit="px"
       method="auto"
       mode="F"
       radius="160"
       chamfer_steps="1"
       flexible="false"
       use_knot_distance="true"
       apply_no_radius="true"
       apply_with_radius="true"
       only_selected="true"
       hide_knots="false" /><inkscape:path-effect
       effect="fillet_chamfer"
       id="path-effect1759"
       is_visible="true"
       lpeversion="1"
       nodesatellites_param="F,0,1,1,0,160,0,1 @ F,0,1,1,0,160,0,1 @ F,0,0,1,0,0,0,1 @ F,0,0,1,0,0,0,1"
       unit="px"
       method="auto"
       mode="F"
       radius="160"
       chamfer_steps="1"
       flexible="false"
       use_knot_distance="true"
       apply_no_radius="true"
       apply_with_radius="true"
       only_selected="true"
       hide_knots="false" /><inkscape:path-effect
       effect="fillet_chamfer"
       id="path-effect1748"
       is_visible="true"
       lpeversion="1"
       nodesatellites_param="F,0,0,1,0,0,0,1 @ F,0,0,1,0,0,0,1 @ F,0,0,1,0,0,0,1 @ F,0,0,1,0,0,0,1"
       unit="px"
       method="auto"
       mode="F"
       radius="33"
       chamfer_steps="1"
       flexible="false"
       use_knot_distance="true"
       apply_no_radius="true"
       apply_with_radius="true"
       only_selected="true"
       hide_knots="false" /><inkscape:path-effect
       effect="fillet_chamfer"
       id="path-effect1746"
       is_visible="true"
       lpeversion="1"
       nodesatellites_param="F,0,0,1,0,43.389831,0,1 @ F,0,0,1,0,109.55932,0,1 @ F,0,0,1,0,0,0,1 @ F,0,0,1,0,0,0,1"
       unit="px"
       method="auto"
       mode="C"
       radius="79"
       chamfer_steps="1"
       flexible="false"
       use_knot_distance="false"
       apply_no_radius="true"
       apply_with_radius="true"
       only_selected="true"
       hide_knots="false" /><inkscape:path-effect
       effect="fillet_chamfer"
       id="path-effect1744"
       is_visible="true"
       lpeversion="1"
       nodesatellites_param="F,0,0,1,0,0,0,1 @ F,0,0,1,0,0,0,1 @ F,0,0,1,0,0,0,1 @ F,0,0,1,0,0,0,1"
       unit="px"
       method="auto"
       mode="F"
       radius="37"
       chamfer_steps="1"
       flexible="false"
       use_knot_distance="true"
       apply_no_radius="true"
       apply_with_radius="true"
       only_selected="false"
       hide_knots="false" /><inkscape:path-effect
       effect="fillet_chamfer"
       id="path-effect1742"
       is_visible="true"
       lpeversion="1"
       nodesatellites_param="F,0,0,1,0,0,0,1 @ F,0,0,1,0,0,0,1 @ F,0,0,1,0,0,0,1 @ F,0,0,1,0,0,0,1"
       unit="px"
       method="auto"
       mode="F"
       radius="27"
       chamfer_steps="1"
       flexible="false"
       use_knot_distance="true"
       apply_no_radius="true"
       apply_with_radius="true"
       only_selected="true"
       hide_knots="false" /><inkscape:path-effect
       effect="fillet_chamfer"
       id="path-effect1738"
       is_visible="true"
       lpeversion="1"
       nodesatellites_param="F,0,0,1,0,0,0,1 @ F,0,0,1,0,0,0,1 @ F,0,0,1,0,0,0,1 @ F,0,0,1,0,0,0,1"
       unit="px"
       method="auto"
       mode="F"
       radius="603"
       chamfer_steps="1"
       flexible="false"
       use_knot_distance="true"
       apply_no_radius="true"
       apply_with_radius="true"
       only_selected="true"
       hide_knots="false" /></defs><sodipodi:namedview
     id="namedview23"
     pagecolor="#ffffff"
     bordercolor="#666666"
     borderopacity="1.0"
     inkscape:showpageshadow="2"
     inkscape:pageopacity="0.0"
     inkscape:pagecheckerboard="0"
     inkscape:deskcolor="#d1d1d1"
     showgrid="false"
     inkscape:zoom="0.59"
     inkscape:cx="80.508475"
     inkscape:cy="600"
     inkscape:window-width="1695"
     inkscape:window-height="953"
     inkscape:window-x="70"
     inkscape:window-y="78"
     inkscape:window-maximized="0"
     inkscape:current-layer="svg21" /><path
     id="rect1815"
     style="opacity:1;fill:#ffffff;stroke-width:4.12496"
     d="M 0,358.39999 H 1024 V 864 A 160,160 135 0 1 864,1024 H 160 A 160,160 45 0 1 0,864 Z"
     inkscape:original-d="M 0,358.39999 H 1024 V 1024 H 0 Z"
     inkscape:path-effect="#path-effect1818" /><path
     id="rect331"
     style="fill:#f2385a;stroke-width:5.41104"
     d="m 160,0 h 704 a 160,160 45 0 1 160,160 V 358.39999 H 0 V 160 A 160,160 135 0 1 160,0 Z"
     inkscape:path-effect="#path-effect1759"
     inkscape:original-d="M 0,0 H 1024 V 358.39999 H 0 Z" /><path
     d="m 375.15896,206.81929 37.66267,12.55422 c -5.02169,22.59761 -15.06506,37.66268 -30.13014,47.70607 -15.06507,10.04337 -30.13013,15.06506 -52.72773,15.06506 -25.10846,0 -47.70606,-10.04337 -65.28198,-27.61929 -17.57592,-17.57592 -25.10844,-42.68437 -25.10844,-72.8145 0,-32.64098 7.53252,-57.74944 25.10844,-77.83619 17.57592,-17.575916 40.17352,-27.619286 67.79281,-27.619306 25.10846,0 42.68437,7.53254 57.74943,22.5976 10.04339,7.532536 15.06507,20.086776 20.08677,35.151846 l -37.66268,12.55422 c -2.51083,-10.04338 -7.53253,-17.57592 -15.06506,-25.10846 -7.53255,-5.02168 -17.57592,-10.04337 -27.61929,-10.04337 -15.06508,0 -27.61929,5.02169 -35.15184,15.06508 -10.04337,10.04337 -12.55422,27.61929 -12.55422,50.2169 0,25.10844 5.02169,42.68434 12.55422,52.72773 10.04338,10.04338 20.08676,15.06508 35.15184,15.06508 10.04337,0 20.08674,-2.51086 27.61929,-10.0434 7.53253,-2.51083 12.55423,-12.55421 17.57591,-27.61929 z m 248.57364,72.8145 h -42.68437 l -17.57592,-45.19521 h -77.83618 l -15.06506,45.19521 H 427.8867 L 505.72289,81.277054 h 42.68436 z m -72.8145,-77.83618 -27.61929,-75.32534 -25.10845,75.32534 z m 95.4121,77.83618 V 83.787894 h 40.17352 V 246.9928 h 97.92294 v 32.64099 z"
     fill="#ffffff"
     id="path19"
     style="stroke-width:1.5669" /><rect
     width="488.13556"
     height="488.13556"
     fill="#ffffff"
     fill-opacity="0.01"
     id="rect185"
     x="282.03403"
     y="443.93222"
     style="fill:#ffff00;stroke-width:10.1695" /><path
     d="m 563.87457,440.45888 c -70.01472,18.25408 -121.69216,81.9168 -121.69216,157.65056 0,89.97248 72.93567,162.90816 162.90816,162.90816 75.73376,0 139.39713,-51.67744 157.64992,-121.69215 C 766.18881,656.0768 768,673.42721 768,691.2 768,832.58496 653.38497,947.19999 512.00001,947.19999 370.61505,947.19999 256,832.58496 256,691.2 256,549.81504 370.61505,435.19999 512.00001,435.19999 c 17.7728,0 35.1232,1.81108 51.87456,5.25889 z"
     fill="#2f88ff"
     stroke="#000000"
     stroke-width="51.2"
     stroke-linejoin="round"
     id="path187"
     style="fill:#fbbf24;fill-opacity:1;stroke:none" /></svg>
