<?xml version="1.0" encoding="UTF-8" standalone="no"?>
<!-- Uploaded to: SVG Repo, www.svgrepo.com, Generator: SVG Repo Mixer Tools -->

<svg
   width="800"
   height="800"
   viewBox="0 0 1024 1024"
   class="icon"
   version="1.1"
   id="svg21"
   xml:space="preserve"
   xmlns="http://www.w3.org/2000/svg"
   xmlns:svg="http://www.w3.org/2000/svg"><defs
     id="defs25" /><path
     d="M 992,93.23 C 992,62.46 969.56261,37.12 942.3172,37.12 H 81.682805 C 54.437396,37.12 32,62.46 32,93.23 v 260.05 h 960 z"
     fill="#f2385a"
     id="path9"
     style="stroke-width:1.06288" /><path
     d="M 32,930.0241 C 32,960.5012 54.433958,985.6 81.675192,985.6 H 943.78014 c 27.24123,0 49.67519,-25.0988 49.67519,-55.5759 V 390.4 H 32 Z"
     fill="#ffffff"
     id="path11"
     style="stroke-width:1.05773" /><path
     id="path13"
     style="stroke-width:1.03844"
     d="M 932.90474,0.01122354 C 651.53538,0.02024318 370.16587,0.02411935 88.796595,0.03636271 68.925889,0.34323609 49.43815,8.3752922 34.664252,21.579505 17.620932,36.618133 6.3525496,57.690599 2.1351091,79.936415 0.22215358,89.808213 -0.12854829,99.902364 0.03590678,109.93273 c 0.05197939,33.44294 0.0085939,66.88597 0.02382636,100.32895 0.0035049,238.68537 0.01385622,477.37087 0.03735882,716.05617 0.45729348,23.75796 8.91648854,47.41898 24.22444804,65.66453 12.203931,14.61352 28.997522,25.58482 47.622052,29.88562 7.81837,1.8446 15.896946,2.278 23.905414,2.0927 0.391942,0 1.188804,7e-4 1.73574,0 279.064334,0.01 558.128704,0.02 837.193024,0.01 19.88969,-0.1586 39.40269,-8.1154 54.31961,-21.1606 15.57642,-13.54816 26.53792,-32.10914 31.56362,-52.08376 2.1844,-8.52543 3.2191,-17.32352 3.281,-26.11877 0.1272,-9.43032 0,-18.86191 0.037,-28.29281 -0.01,-265.20192 0,-530.40385 0.01,-795.60577 0.059,-9.090304 -0.7144,-18.218545 -2.8468,-27.070526 -4.4269,-19.125439 -14.26,-37.128337 -28.67695,-50.540639 C 980.80098,12.184939 966.12335,4.3771898 950.37698,1.4546321 944.62461,0.36163339 938.75642,-0.07803561 932.90474,0.01122354 Z M 90.215972,55.440335 c 281.555028,0.0077 563.110048,0.01548 844.665078,0.02321 10.3933,0.354073 20.25511,5.835038 26.71168,13.876848 7.27933,8.771623 11.01647,20.269015 10.76344,31.627787 0.0256,48.4206 0.0244,96.84139 0.0313,145.26208 -0.002,33.35338 -0.003,66.70676 -0.005,100.06014 -306.91044,0 -613.82089,0 -920.731335,0 0.01003,-82.88781 0.02086,-165.77597 0.0671,-248.663542 0.556032,-12.838227 6.322478,-25.569169 16.250203,-33.855881 6.201518,-5.147019 14.138002,-8.353878 22.247611,-8.330638 z M 973.95261,401.72532 c -0.0163,174.1075 -0.0214,348.21525 -0.0448,522.32259 -0.42019,12.8895 -6.08166,25.72568 -15.96316,34.13806 -6.7277,5.76122 -15.63526,9.01316 -24.51345,8.57443 -236.68903,0.0215 -473.37806,-0.0135 -710.06708,-0.0212 -44.89521,-0.01 -89.79115,0.009 -134.68591,-0.0182 -9.818311,-0.44795 -19.09795,-5.52092 -25.44711,-12.91464 -7.405903,-8.46014 -11.450572,-19.67272 -11.554825,-30.88426 4.32e-4,-0.68608 -0.0086,-1.69162 -0.0116,-2.50034 -0.03873,-157.76631 -0.0063,-315.53263 -0.01393,-473.29895 1.33e-4,-15.13252 2.65e-4,-30.26505 3.97e-4,-45.39757 307.433848,0 614.867698,0 922.301548,0 z" /><path
     d="m 375.15897,222.81929 37.66267,12.55422 c -5.02169,22.59761 -15.06506,37.66268 -30.13014,47.70607 -15.06507,10.04337 -30.13013,15.06506 -52.72773,15.06506 -25.10846,0 -47.70606,-10.04337 -65.28198,-27.61929 -17.57592,-17.57592 -25.10844,-42.68437 -25.10844,-72.8145 0,-32.64098 7.53252,-57.74944 25.10844,-77.83618 17.57592,-17.57592 40.17352,-27.61929 67.79281,-27.61931 25.10846,0 42.68437,7.53254 57.74943,22.5976 10.04339,7.53254 15.06507,20.08677 20.08677,35.15184 l -37.66268,12.55422 c -2.51083,-10.04338 -7.53253,-17.57592 -15.06506,-25.10846 -7.53255,-5.02168 -17.57592,-10.04337 -27.61929,-10.04337 -15.06508,0 -27.61929,5.02169 -35.15184,15.06508 -10.04337,10.04337 -12.55422,27.61929 -12.55422,50.2169 0,25.10844 5.02169,42.68434 12.55422,52.72773 10.04338,10.04338 20.08676,15.06508 35.15184,15.06508 10.04337,0 20.08674,-2.51086 27.61929,-10.0434 7.53253,-2.51083 12.55423,-12.55421 17.57591,-27.61929 z m 248.57364,72.8145 h -42.68437 l -17.57592,-45.19521 h -77.83618 l -15.06506,45.19521 H 427.88671 L 505.7229,97.27706 h 42.68436 z m -72.8145,-77.83618 -27.61929,-75.32534 -25.10845,75.32534 z m 95.4121,77.83618 V 99.7879 h 40.17352 v 163.2049 h 97.92294 v 32.64099 z"
     fill="#ffffff"
     id="path19"
     style="stroke-width:1.5669" /><g
     style="fill:#ffff00"
     id="g197"
     transform="matrix(10.169491,0,0,10.169491,282.03404,443.93222)"><rect
       width="48"
       height="48"
       fill="#ffffff"
       fill-opacity="0.01"
       id="rect185"
       x="0"
       y="0"
       style="fill:#ffff00" /><path
       d="m 28.0527,4.41085 c -5.4699,1.4261 -9.5072,6.39975 -9.5072,12.31645 0,7.0291 5.6981,12.7272 12.7272,12.7272 5.9167,0 10.8904,-4.0373 12.3164,-9.5072 C 43.8585,21.256 44,22.6115 44,24 44,35.0457 35.0457,44 24,44 12.9543,44 4,35.0457 4,24 4,12.9543 12.9543,4 24,4 c 1.3885,0 2.744,0.14149 4.0527,0.41085 z"
       fill="#2f88ff"
       stroke="#000000"
       stroke-width="4"
       stroke-linejoin="round"
       id="path187"
       style="fill:#ffff00" /></g></svg>
